<svg  viewBox="0 0 20 20" fill="none" xmlns="http://www.w3.org/2000/svg">
<path fill-rule="evenodd" clip-rule="evenodd" d="M9.99981 6.66666C10.46 6.66666 10.8331 7.03975 10.8331 7.49999V10.8333C10.8331 11.2936 10.46 11.6667 9.99981 11.6667C9.53957 11.6667 9.16647 11.2936 9.16647 10.8333V7.49999C9.16647 7.03975 9.53957 6.66666 9.99981 6.66666ZM9.16647 14.1667C9.16647 13.7064 9.53957 13.3333 9.99981 13.3333H10.0081C10.4684 13.3333 10.8415 13.7064 10.8415 14.1667C10.8415 14.6269 10.4684 15 10.0081 15H9.99981C9.53957 15 9.16647 14.6269 9.16647 14.1667Z" fill="#DC6803"/>
<path fill-rule="evenodd" clip-rule="evenodd" d="M8.91747 1.875C9.39859 1.04167 10.6014 1.04167 11.0825 1.875L19.0211 15.625C19.5022 16.4583 18.9008 17.5 17.9386 17.5H2.06144C1.09919 17.5 0.497778 16.4583 0.978903 15.625L8.91747 1.875ZM10 3.33333L2.78312 15.8333H17.2169L10 3.33333Z" fill="#DC6803"/>
</svg>
