<svg width="175" height="123" viewBox="0 0 175 123" fill="none" xmlns="http://www.w3.org/2000/svg">
<path d="M20.16 41.884C64.295 53.8159 110.864 53.8159 154.999 41.884L173.979 110.418C117.418 125.706 57.7402 125.706 1.17932 110.418L20.16 41.884Z" fill="white"/>
<path d="M87.5802 122.241C58.2315 122.243 29.0142 118.384 0.704143 110.765C0.662099 110.754 0.62285 110.734 0.58885 110.707C0.554851 110.681 0.526838 110.647 0.506565 110.609C0.483406 110.573 0.468478 110.532 0.462795 110.49C0.457112 110.447 0.460806 110.404 0.473633 110.363L19.5335 41.7648C19.5581 41.682 19.6146 41.612 19.6908 41.5696C19.7671 41.5272 19.8572 41.5158 19.9419 41.5379C64.2217 53.4549 110.939 53.4549 155.219 41.5379C155.303 41.5158 155.393 41.5272 155.47 41.5696C155.546 41.612 155.602 41.682 155.627 41.7648L174.687 110.343C174.7 110.384 174.703 110.428 174.698 110.47C174.692 110.513 174.677 110.554 174.654 110.59C174.634 110.628 174.606 110.661 174.572 110.688C174.538 110.715 174.498 110.734 174.456 110.745C146.147 118.371 116.93 122.237 87.5802 122.241ZM1.19809 110.22C57.756 125.386 117.404 125.386 173.962 110.22L155.074 42.264C110.872 54.1017 64.2617 54.1017 20.0604 42.264L1.19809 110.22Z" fill="#D0D5DD" stroke="#D0D5DD" stroke-width="0.4824"/>
<path d="M55.0631 67.179L47.4484 51.1686L46.2015 53.7305L43.6343 52.7181L42.3282 55.4276L39.6879 54.2178L38.7129 57.062L36.0371 55.9266L35.1036 58.6563L32.3557 57.6499L31.6087 60.1929L28.6816 59.7132L28.2439 61.5734L25.1023 61.0286L32.9504 77.5297L55.0631 67.179Z" fill="white"/>
<path d="M55.1434 67.3482L33.0307 77.699C32.9855 77.7201 32.9336 77.7226 32.8865 77.7059C32.8394 77.6891 32.801 77.6545 32.7796 77.6096L24.9379 61.122C24.9227 61.0913 24.9166 61.0569 24.9203 61.0229C24.9241 60.9888 24.9376 60.9566 24.9592 60.9299C24.9772 60.9012 25.0033 60.8782 25.0341 60.8637C25.065 60.8493 25.0994 60.844 25.1332 60.8485L28.1018 61.3626L28.4934 59.6688C28.5034 59.6218 28.5313 59.5805 28.5712 59.5534C28.6111 59.5263 28.6599 59.5153 28.7077 59.5229L31.4665 59.9821L32.1594 57.5885C32.1661 57.5637 32.1781 57.5406 32.1946 57.5207C32.211 57.5009 32.2316 57.4848 32.2549 57.4735C32.278 57.4619 32.3033 57.4552 32.3292 57.4538C32.3551 57.4524 32.381 57.4562 32.4053 57.4652L34.9755 58.4223L35.8491 55.8738C35.8674 55.8254 35.9041 55.786 35.9512 55.764C35.9747 55.7528 36.0003 55.747 36.0263 55.747C36.0523 55.747 36.078 55.7528 36.1014 55.764L38.59 56.8215L39.4999 54.1649C39.5086 54.14 39.5225 54.1172 39.5407 54.098C39.5588 54.0788 39.5809 54.0636 39.6054 54.0535C39.6296 54.0436 39.6555 54.0388 39.6817 54.0394C39.7078 54.04 39.7335 54.0459 39.7572 54.0569L42.2272 55.1893L43.4551 52.6488C43.4728 52.605 43.5066 52.5695 43.5496 52.5493C43.5926 52.5292 43.6417 52.5259 43.6871 52.5402L46.1025 53.4788L47.2767 51.071C47.2924 51.0396 47.3167 51.0132 47.3468 50.9948C47.377 50.9764 47.4117 50.9668 47.4471 50.9671C47.4824 50.9674 47.517 50.9775 47.5468 50.9964C47.5767 51.0152 47.6006 51.042 47.6158 51.0736L55.2305 67.084C55.2436 67.1067 55.2518 67.1319 55.2546 67.158C55.2573 67.184 55.2544 67.2104 55.2462 67.2353C55.238 67.2602 55.2246 67.2831 55.2069 67.3026C55.1892 67.322 55.1676 67.3376 55.1434 67.3482ZM33.0403 77.2806L54.8118 67.0896L47.4467 51.6039L46.3699 53.813C46.3521 53.8567 46.3184 53.8923 46.2753 53.9124C46.2323 53.9325 46.1832 53.9358 46.1378 53.9216L43.7225 52.983L42.491 55.5334C42.4694 55.5778 42.431 55.612 42.3842 55.6285C42.3374 55.645 42.2859 55.6425 42.2409 55.6215L39.7926 54.4997L38.8714 57.1325C38.8628 57.1567 38.8492 57.1789 38.8317 57.1978C38.8141 57.2167 38.7929 57.2318 38.7694 57.2424C38.7454 57.2538 38.7193 57.2599 38.6927 57.2601C38.6662 57.2604 38.6399 57.2549 38.6157 57.2439L36.1288 56.1899L35.2503 58.7282C35.2442 58.7532 35.2323 58.7763 35.2154 58.7957C35.1985 58.8152 35.1772 58.8303 35.1532 58.8399C35.1067 58.8599 35.0544 58.8623 35.0062 58.8466L32.4491 57.9082L31.7606 60.2583C31.747 60.3019 31.7181 60.3393 31.6792 60.3636C31.6402 60.3879 31.5938 60.3975 31.5483 60.3908L28.8095 59.9388L28.4161 61.6376C28.4053 61.6842 28.3769 61.7249 28.3367 61.7514C28.2966 61.7779 28.2477 61.7882 28.2002 61.78L25.4166 61.2952L33.0403 77.2806Z" fill="#D0D5DD" stroke="#D0D5DD" stroke-width="0.4824"/>
<path d="M46.7692 58.108L30.0815 65.9194C30.0586 65.9392 30.0314 65.9535 30.0021 65.9612C29.9727 65.9688 29.9419 65.9696 29.9122 65.9635C29.8825 65.9573 29.8546 65.9444 29.8308 65.9258C29.8069 65.9071 29.7878 65.8832 29.7748 65.856C29.7619 65.8288 29.7554 65.7989 29.7561 65.7688C29.7567 65.7387 29.7644 65.7091 29.7786 65.6825C29.7927 65.6558 29.8128 65.6327 29.8375 65.6151C29.8621 65.5975 29.8905 65.5858 29.9205 65.5809L46.6082 57.7695C46.6503 57.7627 46.6935 57.7696 46.7312 57.7893C46.7689 57.8089 46.7992 57.8403 46.8174 57.8785C46.8356 57.9168 46.8407 57.9599 46.832 58.0013C46.8233 58.0427 46.8013 58.0801 46.7692 58.108Z" fill="#D0D5DD" stroke="#D0D5DD" stroke-width="0.4824"/>
<path d="M44.2162 63.818L31.8377 69.6123C31.8149 69.6321 31.7877 69.6464 31.7584 69.6541C31.729 69.6617 31.6982 69.6625 31.6685 69.6564C31.6388 69.6502 31.6109 69.6373 31.5871 69.6187C31.5632 69.6 31.5441 69.5761 31.5311 69.5489C31.5181 69.5216 31.5117 69.4918 31.5124 69.4617C31.513 69.4315 31.5207 69.402 31.5348 69.3753C31.549 69.3487 31.5691 69.3256 31.5938 69.308C31.6184 69.2904 31.6468 69.2787 31.6768 69.2738L44.0552 63.4795C44.0781 63.4597 44.1053 63.4454 44.1346 63.4377C44.164 63.4301 44.1948 63.4293 44.2245 63.4354C44.2542 63.4416 44.2821 63.4545 44.3059 63.4731C44.3298 63.4918 44.3489 63.5157 44.3619 63.5429C44.3748 63.5701 44.3812 63.6 44.3806 63.6301C44.3799 63.6602 44.3723 63.6898 44.3581 63.7165C44.344 63.7431 44.3239 63.7662 44.2992 63.7838C44.2746 63.8014 44.2462 63.8131 44.2162 63.818Z" fill="#D0D5DD" stroke="#D0D5DD" stroke-width="0.4824"/>
<path d="M48.0231 66.551L33.5941 73.3051C33.5712 73.325 33.5441 73.3393 33.5147 73.3469C33.4853 73.3546 33.4546 73.3554 33.4249 73.3492C33.3951 73.3431 33.3672 73.3302 33.3434 73.3115C33.3196 73.2929 33.3004 73.269 33.2874 73.2417C33.2745 73.2145 33.2681 73.1847 33.2687 73.1545C33.2694 73.1244 33.2771 73.0949 33.2912 73.0682C33.3053 73.0415 33.3255 73.0185 33.3501 73.0009C33.3747 72.9832 33.4031 72.9715 33.4331 72.9666L47.8622 66.2125C47.885 66.1927 47.9122 66.1784 47.9415 66.1707C47.9709 66.1631 48.0017 66.1623 48.0314 66.1684C48.0611 66.1746 48.089 66.1875 48.1128 66.2061C48.1367 66.2248 48.1558 66.2487 48.1688 66.2759C48.1818 66.3032 48.1882 66.333 48.1875 66.3631C48.1869 66.3932 48.1792 66.4228 48.1651 66.4495C48.1509 66.4761 48.1308 66.4992 48.1061 66.5168C48.0815 66.5344 48.0531 66.5461 48.0231 66.551Z" fill="#D0D5DD" stroke="#D0D5DD" stroke-width="0.4824"/>
<path d="M50.2435 110.917L123.484 104.438L119.202 57.252L45.9608 63.7303L50.2435 110.917Z" fill="white"/>
<path d="M50.4461 111.166C50.3639 111.168 50.284 111.139 50.2228 111.085C50.1617 111.031 50.1239 110.956 50.1172 110.875L45.8213 63.7049C45.814 63.619 45.8398 63.5336 45.8937 63.4656C45.9503 63.4001 46.0304 63.3585 46.1173 63.3492L119.641 56.8822C119.684 56.8778 119.728 56.8818 119.77 56.894C119.811 56.9063 119.85 56.9265 119.884 56.9536C119.917 56.9806 119.945 57.014 119.966 57.0517C119.986 57.0894 119.999 57.1307 120.003 57.1732L124.299 104.343C124.303 104.386 124.298 104.43 124.284 104.471C124.27 104.512 124.249 104.55 124.22 104.583C124.192 104.615 124.158 104.642 124.12 104.661C124.081 104.68 124.039 104.691 123.996 104.693L50.4724 111.16L50.4461 111.166ZM46.4989 63.9571L50.7356 110.519L123.608 104.104L119.378 57.5548L46.4989 63.9571Z" fill="#D0D5DD" stroke="#D0D5DD" stroke-width="0.4824"/>
<path d="M108.266 113.057L127.397 114.596L129.561 88.3849L110.43 86.8455L108.266 113.057Z" fill="white"/>
<path d="M126.915 114.38L108.085 112.869C108 112.861 107.921 112.821 107.866 112.757C107.81 112.693 107.782 112.611 107.788 112.527L109.917 86.8108C109.924 86.7276 109.963 86.6503 110.026 86.595C110.059 86.5684 110.098 86.5485 110.139 86.5365C110.179 86.5245 110.222 86.5207 110.265 86.5252L129.089 88.0293C129.132 88.0332 129.173 88.0452 129.211 88.0649C129.248 88.0845 129.282 88.1112 129.309 88.1436C129.337 88.1745 129.358 88.2107 129.371 88.2499C129.385 88.2892 129.39 88.3308 129.386 88.372L127.257 114.088C127.251 114.171 127.211 114.248 127.147 114.303C127.083 114.357 127 114.385 126.915 114.38ZM108.446 112.26L126.631 113.72L128.709 88.6386L110.51 87.1599L108.446 112.26Z" fill="#D0D5DD" stroke="#D0D5DD" stroke-width="0.4824"/>
<path d="M122.969 110.095C123.727 109.531 124.366 108.822 124.85 108.007C125.334 107.192 125.652 106.289 125.787 105.349L122.678 105.095C122.528 105.839 122.177 106.527 121.664 107.083C121.451 107.313 121.213 107.516 120.953 107.689C120.327 108.116 119.594 108.356 118.839 108.38L118.587 111.523C120.164 111.547 121.704 111.045 122.969 110.095Z" fill="#6CE9A6"/>
<path d="M111.388 103.838C111.362 105.318 111.862 106.765 112.812 107.952L115.204 106.055C114.795 105.466 114.57 104.782 114.554 104.08C114.544 103.933 114.544 103.785 114.554 103.638C114.565 103.493 114.587 103.349 114.619 103.207C114.833 102.218 115.457 101.348 116.354 100.784C116.984 100.392 117.717 100.172 118.473 100.147C118.631 100.138 118.79 100.138 118.948 100.147C119.104 100.147 119.26 100.184 119.409 100.208C120.141 100.352 120.816 100.681 121.359 101.159C121.589 101.36 121.794 101.583 121.97 101.826C122.391 102.414 122.627 103.101 122.653 103.807L125.786 104.044C125.815 102.563 125.314 101.115 124.362 99.9293C124.173 99.696 123.969 99.4734 123.751 99.2627C122.653 98.1972 121.205 97.5023 119.637 97.2873L119.169 97.2388C119.013 97.2388 118.85 97.2388 118.701 97.2388C117.112 97.2118 115.559 97.6787 114.287 98.5659C114.034 98.7372 113.795 98.9255 113.572 99.1294C112.428 100.155 111.682 101.507 111.453 102.971C111.453 103.117 111.414 103.262 111.401 103.407C111.388 103.553 111.395 103.692 111.388 103.838Z" fill="#FF9C66"/>
<path d="M113.547 108.623C114.634 109.803 116.066 110.573 117.617 110.809L117.867 107.576C117.144 107.419 116.478 107.054 115.941 106.523L113.547 108.623Z" fill="#84ADFF"/>
<path d="M125.445 95.8076L113.839 94.5271C113.755 94.518 113.678 94.4639 113.623 94.3769C113.568 94.2899 113.541 94.1769 113.548 94.063C113.555 93.949 113.595 93.8433 113.659 93.7692C113.723 93.695 113.806 93.6585 113.89 93.6676L125.496 94.9482C125.578 94.9611 125.654 95.0162 125.709 95.1024C125.763 95.1885 125.791 95.2993 125.787 95.4123C125.784 95.4688 125.772 95.5239 125.753 95.5744C125.734 95.6249 125.708 95.6698 125.676 95.7065C125.645 95.7433 125.608 95.7711 125.568 95.7885C125.528 95.8058 125.486 95.8123 125.445 95.8076Z" fill="#D0D5DD" stroke="#D0D5DD" stroke-width="0.4824"/>
<path d="M126.153 92.2377L116.746 91.4966C116.654 91.4879 116.569 91.4441 116.509 91.3747C116.449 91.3053 116.421 91.216 116.428 91.126C116.431 91.0812 116.443 91.0373 116.463 90.9971C116.484 90.9568 116.512 90.9209 116.547 90.8915C116.582 90.862 116.623 90.8397 116.667 90.8258C116.711 90.8118 116.757 90.8066 116.803 90.8103L126.182 91.5515C126.274 91.5618 126.359 91.6058 126.419 91.6746C126.48 91.7433 126.511 91.8318 126.507 91.922C126.5 92.0082 126.459 92.0886 126.394 92.1471C126.328 92.2056 126.242 92.238 126.153 92.2377Z" fill="#D0D5DD" stroke="#D0D5DD" stroke-width="0.4824"/>
<path d="M111.126 39.1157H64.033C63.9731 39.1157 63.9156 39.0922 63.8733 39.0504C63.8309 39.0086 63.8071 38.9519 63.8071 38.8927C63.8071 38.8336 63.8309 38.7769 63.8733 38.7351C63.9156 38.6932 63.9731 38.6697 64.033 38.6697H111.126C111.186 38.6697 111.243 38.6932 111.285 38.7351C111.328 38.7769 111.352 38.8336 111.352 38.8927C111.352 38.9519 111.328 39.0086 111.285 39.0504C111.243 39.0922 111.186 39.1157 111.126 39.1157Z" fill="white"/>
<path d="M51.58 99.8454L123.831 99.8454V56.106L51.58 56.106V99.8454Z" fill="white"/>
<path d="M123.97 100.56H51.1908C51.1031 100.56 51.019 100.525 50.957 100.465C50.895 100.404 50.8602 100.321 50.8602 100.235V55.8842C50.8602 55.7982 50.895 55.7156 50.957 55.6547C51.019 55.5939 51.1031 55.5597 51.1908 55.5597H123.97C124.057 55.5597 124.141 55.5939 124.203 55.6547C124.265 55.7156 124.3 55.7982 124.3 55.8842V100.235C124.3 100.321 124.265 100.404 124.203 100.465C124.141 100.525 124.057 100.56 123.97 100.56ZM51.5214 99.9105H123.639V56.2088H51.5214V99.9105Z" fill="#98A2B3" stroke="#98A2B3" stroke-width="0.4824"/>
<path d="M104.14 91.631H113.5V83.7739H104.14V91.631Z" fill="white"/>
<path d="M90.4602 98.7739H99.1002V83.7739H90.4602V98.7739Z" fill="white"/>
<path d="M79.0206 41.8096L74.4057 44.0405L65.9711 27.0362C65.6893 26.468 65.6476 25.8125 65.8553 25.214C66.063 24.6155 66.5031 24.1229 67.0786 23.8447L67.3406 23.718C67.9162 23.4398 68.5801 23.3987 69.1864 23.6037C69.7927 23.8088 70.2917 24.2432 70.5735 24.8114L79.0081 41.8156L79.0206 41.8096Z" fill="white"/>
<path d="M74.3013 44.8672C74.1656 44.869 74.0323 44.8351 73.9171 44.7694C73.8019 44.7037 73.7097 44.609 73.6516 44.4966L64.8728 28.0847C64.6853 27.733 64.5759 27.3506 64.5511 26.9598C64.5264 26.569 64.5866 26.1775 64.7285 25.8082C64.8628 25.4401 65.0765 25.1004 65.3567 24.8094C65.637 24.5184 65.9782 24.2819 66.36 24.1141L66.6344 23.9818C67.4011 23.6357 68.2858 23.5806 69.0966 23.8284C69.9074 24.0761 70.579 24.6068 70.966 25.3053L79.7447 41.7304C79.7838 41.8094 79.804 41.8951 79.804 41.9819C79.804 42.0686 79.7838 42.1544 79.7447 42.2334C79.6833 42.3994 79.5538 42.5371 79.3837 42.6172L74.6189 44.801C74.5211 44.848 74.4116 44.8708 74.3013 44.8672ZM68.0638 25.0141C67.7879 25.0127 67.5157 25.0717 67.2697 25.1862L66.9953 25.3053C66.7824 25.401 66.5924 25.5345 66.4362 25.6981C66.2801 25.8617 66.1609 26.0521 66.0857 26.2583C66.0039 26.4732 65.9695 26.7008 65.9843 26.928C65.9992 27.1552 66.0631 27.3774 66.1723 27.5818L74.6334 43.3981L78.1275 41.8363L69.6809 25.9538C69.5437 25.6625 69.3187 25.4131 69.0322 25.2349C68.7458 25.0568 68.4098 24.9572 68.0638 24.9479V25.0141Z" fill="#98A2B3" stroke="#98A2B3" stroke-width="0.4824"/>
<path d="M81.6959 60.974L89.142 57.3745L80.8907 40.7396L73.4445 44.3392L81.6959 60.974Z" fill="white"/>
<path d="M80.5915 61.0148H80.3731C80.201 60.9518 80.0595 60.8267 79.9774 60.6646L71.8713 44.33C71.8317 44.2504 71.8084 44.1639 71.8028 44.0755C71.7972 43.987 71.8093 43.8984 71.8384 43.8145C71.8676 43.7307 71.9132 43.6534 71.9727 43.587C72.0322 43.5206 72.1044 43.4665 72.1852 43.4277L79.4998 39.8861C79.5812 39.8496 79.6696 39.8307 79.759 39.8307C79.8485 39.8307 79.9369 39.8496 80.0183 39.8861C80.1042 39.9124 80.1836 39.9559 80.2517 40.0138C80.3198 40.0717 80.375 40.1428 80.4141 40.2227L88.5201 56.5709C88.5964 56.7321 88.6064 56.9162 88.5478 57.0845C88.4893 57.2528 88.3668 57.3921 88.2063 57.4731L80.8917 61.0013C80.7934 61.0243 80.6915 61.0289 80.5915 61.0148ZM73.3997 44.3165L80.9053 59.4392L86.9917 56.5035L79.4861 41.3674L73.3997 44.3165Z" fill="#98A2B3"/>
<path d="M68.8473 31.6291L70.9879 30.4923C72.4134 29.7353 72.9477 27.981 72.1814 26.5741L59.5033 3.29677C58.737 1.88984 56.9603 1.36299 55.5349 2.12L53.3942 3.25684C51.9688 4.01386 51.4345 5.76809 52.2007 7.17501L64.8788 30.4524C65.6451 31.8593 67.4219 32.3861 68.8473 31.6291Z" fill="white"/>
<path d="M67.4433 32.5372C67.0087 32.5367 66.5774 32.4675 66.1688 32.3326C65.6808 32.1843 65.2303 31.9486 64.8441 31.6394C64.4578 31.3302 64.1435 30.9537 63.9197 30.5322L51.2047 6.9228C50.7536 6.07393 50.6896 5.09729 51.0266 4.20568C51.3636 3.31407 52.0743 2.57975 53.0039 2.16271L55.358 1.11251C56.2888 0.697518 57.3625 0.635341 58.3435 0.939629C59.3246 1.24392 60.1329 1.8898 60.591 2.73556L73.3061 26.3586C73.7582 27.2059 73.8244 28.1812 73.4903 29.0725C73.1562 29.9639 72.4487 30.6993 71.5218 31.1187L69.1527 32.1689C68.622 32.4107 68.0368 32.5368 67.4433 32.5372ZM57.0824 2.10817C56.712 2.10508 56.3465 2.1847 56.0178 2.34003L53.6637 3.39025C53.3782 3.51572 53.1227 3.69111 52.9117 3.90641C52.7008 4.12171 52.5385 4.3727 52.4342 4.64506C52.2328 5.19718 52.2758 5.79893 52.5541 6.32267L65.2392 29.9321C65.3771 30.1918 65.5699 30.4242 65.8066 30.6161C66.0433 30.808 66.3193 30.9556 66.6187 31.0505C66.9186 31.1449 67.2362 31.1839 67.5529 31.1651C67.8696 31.1464 68.179 31.0704 68.4629 30.9414L70.832 29.8912C71.4034 29.6331 71.8393 29.1798 72.0443 28.6304C72.2494 28.0809 72.2071 27.4799 71.9266 26.9588L59.2415 3.36297C59.0503 2.98855 58.7455 2.67157 58.363 2.44929C57.9805 2.22701 57.5362 2.10867 57.0824 2.10817Z" fill="#98A2B3" stroke="#98A2B3" stroke-width="0.4824"/>
<path d="M87.8226 85.2424C100.042 85.2424 109.947 75.4155 109.947 63.2935C109.947 51.1714 100.042 41.3446 87.8226 41.3446C75.6036 41.3446 65.6981 51.1714 65.6981 63.2935C65.6981 75.4155 75.6036 85.2424 87.8226 85.2424Z" fill="white"/>
<path d="M87.8402 85.2424C85.3965 85.2364 82.9703 84.833 80.6582 84.0484C77.9069 83.1197 75.3682 81.66 73.1884 79.7534C71.0087 77.8468 69.231 75.5311 67.9578 72.9397C66.03 69.0411 65.3121 64.6627 65.8951 60.3591C66.478 56.0555 68.3356 52.0203 71.2324 48.7647C74.1292 45.5091 77.935 43.1796 82.1676 42.0712C86.4003 40.9628 90.8693 41.1255 95.0087 42.5386C97.7602 43.4635 100.299 44.9219 102.477 46.829C104.655 48.7361 106.429 51.0538 107.696 53.6472C109.345 56.9909 110.11 60.6957 109.918 64.4133C109.727 68.1309 108.585 71.7391 106.601 74.8987C104.617 78.0582 101.855 80.6653 98.5756 82.4748C95.2961 84.2842 91.6065 85.2366 87.8537 85.2424H87.8402ZM69.2156 72.3494C71.0263 76.0059 73.8895 79.0476 77.4431 81.0897C80.9968 83.1318 85.0812 84.0826 89.1796 83.8218C93.2781 83.561 97.2066 82.1004 100.468 79.6247C103.73 77.1489 106.178 73.7693 107.502 69.9133C108.827 66.0574 108.969 61.8983 107.911 57.9622C106.852 54.0261 104.641 50.4898 101.556 47.8007C98.4706 45.1115 94.6508 43.3904 90.5796 42.8549C86.5083 42.3195 82.3683 42.9938 78.6835 44.7925C76.2247 45.9709 74.0265 47.6221 72.2165 49.6503C70.4065 51.6785 69.0208 54.0432 68.1399 56.607C67.2591 59.1709 66.9005 61.8828 67.0852 64.5853C67.2699 67.2878 67.994 69.9269 69.2156 72.3494Z" fill="#98A2B3" stroke="#98A2B3" stroke-width="0.4824"/>
<path d="M87.8228 81.0992C98.2216 81.0992 106.651 73.0847 106.651 63.1982C106.651 53.3118 98.2216 45.2973 87.8228 45.2973C77.424 45.2973 68.9941 53.3118 68.9941 63.1982C68.9941 73.0847 77.424 81.0992 87.8228 81.0992Z" fill="white"/>
<path d="M87.8411 82.2148C83.1568 82.2192 78.6347 80.5134 75.1369 77.4225C71.639 74.3316 69.4101 70.0718 68.8749 65.4551C68.3397 60.8385 69.5357 56.1879 72.235 52.39C74.9343 48.592 78.948 45.9123 83.5109 44.8618C88.0739 43.8112 92.867 44.4632 96.9765 46.6935C101.086 48.9238 104.225 52.5764 105.794 56.9549C107.363 61.3335 107.253 66.1318 105.485 70.4352C103.717 74.7385 100.414 78.2459 96.2068 80.2886C93.6045 81.5599 90.7418 82.219 87.8411 82.2148ZM87.8411 45.7457C84.844 45.7507 81.8974 46.5117 79.2783 47.9572C76.6593 49.4027 74.4538 51.4852 72.8692 54.0089C71.2846 56.5327 70.3729 59.4147 70.2199 62.3842C70.067 65.3536 70.6776 68.3128 71.9946 70.9837C73.381 73.7954 75.5009 76.1876 78.134 77.912C80.7671 79.6363 83.8175 80.63 86.9685 80.7898C90.1195 80.9495 93.2561 80.2696 96.0528 78.8205C98.8494 77.3715 101.204 75.2061 102.872 72.5493C104.54 69.8926 105.461 66.8412 105.539 63.7121C105.617 60.583 104.849 57.4903 103.315 54.755C101.781 52.0198 99.5373 49.7417 96.8162 48.1575C94.0951 46.5732 90.9961 45.7404 87.8411 45.7457Z" fill="#98A2B3" stroke="#98A2B3" stroke-width="0.4824"/>
<path d="M86.3559 67.3802V66.8826C86.3628 65.912 86.4824 65.1226 86.715 64.5145C86.9475 63.9063 87.2894 63.3934 87.7408 62.9756C88.199 62.5518 88.7666 62.1463 89.4436 61.7593C89.9497 61.4644 90.3736 61.1542 90.7156 60.8286C91.0644 60.4969 91.3276 60.1345 91.5054 59.7413C91.6901 59.342 91.7824 58.9089 91.7824 58.4421C91.7824 57.7786 91.608 57.1981 91.2593 56.7005C90.9173 56.2029 90.4523 55.819 89.8642 55.5487C89.276 55.2722 88.6229 55.134 87.9049 55.134C87.221 55.134 86.5816 55.2692 85.9866 55.5395C85.3985 55.8036 84.9164 56.1968 84.5403 56.7189C84.171 57.235 83.9692 57.8738 83.935 58.6356H81.9963C82.0305 57.622 82.3109 56.7435 82.8374 56.0002C83.364 55.2569 84.0684 54.6825 84.9506 54.2771C85.8328 53.8655 86.8175 53.6597 87.9049 53.6597C89.0401 53.6597 90.0386 53.8716 90.9002 54.2955C91.7619 54.7132 92.4355 55.2876 92.9211 56.0186C93.4066 56.7435 93.6494 57.5759 93.6494 58.5158C93.6494 59.1362 93.54 59.7014 93.3211 60.2113C93.1023 60.7211 92.774 61.1911 92.3363 61.6211C91.9055 62.0511 91.3653 62.4565 90.7156 62.8374C90.1001 63.206 89.6111 63.5715 89.2487 63.934C88.8862 64.2964 88.6264 64.7111 88.4691 65.1779C88.3118 65.6387 88.2263 66.2069 88.2126 66.8826V67.3802H86.3559ZM87.3407 72.9274C86.9372 72.9274 86.5884 72.7984 86.2944 72.5404C86.0072 72.2762 85.8635 71.9629 85.8635 71.6005C85.8635 71.2319 86.0072 70.9186 86.2944 70.6606C86.5884 70.4026 86.9372 70.2736 87.3407 70.2736C87.7442 70.2736 88.0895 70.4026 88.3768 70.6606C88.6708 70.9186 88.8179 71.2319 88.8179 71.6005C88.8179 71.8401 88.7495 72.0612 88.6127 72.2639C88.4828 72.4667 88.3049 72.6294 88.0793 72.7523C87.8604 72.869 87.6142 72.9274 87.3407 72.9274Z" fill="#FDA29B" stroke="#FDA29B" stroke-width="0.4824"/>
<path d="M147.55 68.7597C155.656 68.7597 162.227 61.9992 162.227 53.6596C162.227 45.3201 155.656 38.5595 147.55 38.5595C139.444 38.5595 132.872 45.3201 132.872 53.6596C132.872 61.9992 139.444 68.7597 147.55 68.7597Z" fill="white"/>
<path d="M147.55 68.7597C144.431 68.7597 141.383 67.8738 138.79 66.2142C136.198 64.5545 134.177 62.1957 132.984 59.4359C131.791 56.6762 131.48 53.6395 132.089 50.7101C132.698 47.7807 134.2 45.0902 136.406 42.9788C138.612 40.8674 141.422 39.43 144.48 38.8484C147.539 38.2669 150.709 38.5673 153.589 39.7117C156.47 40.8561 158.931 42.793 160.662 45.2775C162.393 47.762 163.316 50.6824 163.314 53.6693C163.309 57.6716 161.646 61.5084 158.69 64.3376C155.735 67.1667 151.728 68.7571 147.55 68.7597ZM147.55 39.5403C144.632 39.5403 141.78 40.3689 139.355 41.9214C136.929 43.474 135.038 45.6806 133.922 48.2624C132.805 50.8441 132.513 53.685 133.082 56.4257C133.652 59.1665 135.056 61.6841 137.119 63.66C139.182 65.636 141.811 66.9817 144.672 67.5269C147.533 68.072 150.499 67.7922 153.195 66.7228C155.89 65.6534 158.194 63.8425 159.814 61.519C161.435 59.1955 162.3 56.4638 162.3 53.6693C162.295 49.9236 160.739 46.3328 157.974 43.6842C155.209 41.0356 151.46 39.5454 147.55 39.5403Z" fill="#D0D5DD" stroke="#D0D5DD" stroke-width="0.4824"/>
<path d="M149.7 47.0368C149.294 47.7275 149.532 48.6122 150.232 49.0129C150.931 49.4136 151.827 49.1785 152.233 48.4878L154.026 45.4374C154.432 44.7468 154.194 43.862 153.494 43.4614C152.794 43.0607 151.898 43.2957 151.492 43.9864L149.7 47.0368Z" fill="white"/>
<path d="M151.044 49.3454C150.715 49.3419 150.393 49.2552 150.109 49.094C149.826 48.9328 149.591 48.7027 149.428 48.4266C149.265 48.1504 149.18 47.8379 149.18 47.52C149.181 47.2022 149.268 46.8901 149.433 46.6148L151.138 43.7751C151.39 43.3619 151.799 43.061 152.278 42.9377C152.515 42.8745 152.761 42.858 153.004 42.8893C153.247 42.9206 153.481 42.999 153.692 43.1197C154.117 43.3628 154.426 43.7576 154.553 44.2189C154.68 44.6803 154.614 45.1714 154.37 45.5863L152.665 48.4261C152.502 48.7029 152.266 48.9335 151.982 49.0948C151.697 49.2561 151.374 49.3425 151.044 49.3454ZM152.759 43.8024C152.681 43.7928 152.602 43.7928 152.523 43.8024C152.286 43.8651 152.083 44.0154 151.958 44.221L150.253 47.0608C150.189 47.1621 150.148 47.2751 150.131 47.3926C150.115 47.5101 150.124 47.6296 150.158 47.7435C150.223 47.9684 150.375 48.1606 150.582 48.2805C150.687 48.3421 150.804 48.382 150.926 48.3977C151.048 48.4134 151.171 48.4044 151.289 48.3715C151.522 48.3089 151.721 48.1622 151.845 47.9619L153.56 45.113C153.678 44.9068 153.708 44.6646 153.645 44.4371C153.582 44.2097 153.43 44.0148 153.221 43.8934C153.077 43.8276 152.918 43.7963 152.759 43.8024Z" fill="#D0D5DD" stroke="#D0D5DD" stroke-width="0.4824"/>
<path d="M147.006 64.4454C152.41 64.4454 156.791 60.0994 156.791 54.7382C156.791 49.3771 152.41 45.031 147.006 45.031C141.602 45.031 137.221 49.3771 137.221 54.7382C137.221 60.0994 141.602 64.4454 147.006 64.4454Z" fill="white"/>
<path d="M146.963 64.4454C145.248 64.427 143.568 63.9655 142.089 63.1066C140.609 62.2478 139.382 61.0213 138.528 59.5486C137.674 58.0759 137.224 56.408 137.221 54.71C137.219 53.012 137.664 51.3428 138.513 49.8674C139.321 48.4864 140.462 47.3243 141.833 46.484C143.203 45.6438 144.762 45.1513 146.372 45.0504C147.981 44.9495 149.59 45.2432 151.057 45.9055C152.524 46.5678 153.803 47.5782 154.781 48.8471C155.76 50.1161 156.406 51.6044 156.665 53.1801C156.923 54.7557 156.784 56.3701 156.261 57.8801C155.738 59.3901 154.847 60.7491 153.667 61.8364C152.486 62.9238 151.053 63.7061 149.495 64.1139C148.668 64.33 147.818 64.4414 146.963 64.4454ZM146.963 46.0157C146.195 46.017 145.431 46.1153 144.688 46.3083C143.568 46.5991 142.518 47.1075 141.598 47.8039C140.678 48.5003 139.907 49.3708 139.33 50.3647C138.359 52.0254 137.968 53.9569 138.219 55.8597C138.469 57.7626 139.347 59.5305 140.716 60.8892C142.084 62.2479 143.867 63.1216 145.789 63.3746C147.71 63.6277 149.662 63.2461 151.342 62.289C153.022 61.3318 154.336 59.8526 155.08 58.0808C155.824 56.309 155.957 54.3435 155.458 52.4893C154.959 50.635 153.856 48.9955 152.321 47.8251C150.785 46.6546 148.902 46.0186 146.963 46.0157Z" fill="#D0D5DD" stroke="#D0D5DD" stroke-width="0.4824"/>
<path d="M147.55 62.2883C152.053 62.2883 155.704 58.6666 155.704 54.199C155.704 49.7313 152.053 46.1096 147.55 46.1096C143.046 46.1096 139.396 49.7313 139.396 54.199C139.396 58.6666 143.046 62.2883 147.55 62.2883Z" fill="#EAECF0"/>
</svg>
